<?xml version="1.0" encoding="UTF-8"?>
<svg id="b" data-name="Ebene 2" xmlns="http://www.w3.org/2000/svg" viewBox="0 0 208.44 208.18">
  <defs>
    <style>
      .d {
        fill: #000;
        stroke-width: 0px;
      }
    </style>
  </defs>
  <g id="c" data-name="Ebene 1">
    <path class="d" d="M166.65,0H41.8C18.75,0,0,18.75,0,41.8v124.58c0,11.23,4.39,21.76,12.36,29.67,7.89,7.83,18.33,12.13,29.43,12.13.11,0,.23,0,.34,0h.43s.43,0,.43,0c3.96-.03,7.82-.64,11.49-1.73,14.4-4.29,25.87-16.17,29.05-31.3.28-1.34.59-2.67.92-3.99.12-.5.26-1,.39-1.49.03-.11.06-.22.09-.34.18-.68.35-1.35.54-2.02.17-.59.35-1.19.53-1.78.07-.25.15-.49.22-.74.12-.39.24-.78.36-1.17.2-.64.42-1.28.63-1.91.13-.39.26-.79.39-1.18.05-.13.09-.26.14-.39.25-.7.51-1.39.76-2.08.17-.46.34-.92.51-1.38.28-.71.57-1.42.86-2.13.2-.49.39-.98.6-1.46.28-.65.57-1.29.86-1.94.24-.54.48-1.08.73-1.62.26-.57.54-1.13.81-1.69.29-.61.59-1.22.89-1.82.24-.47.49-.94.73-1.4.36-.69.72-1.39,1.1-2.08.2-.36.4-.72.61-1.08.44-.79.88-1.57,1.34-2.35.15-.25.3-.5.45-.75.53-.88,1.06-1.76,1.61-2.62.09-.14.18-.28.28-.43.62-.97,1.25-1.93,1.9-2.87.03-.05.06-.09.09-.14,14.52-21.22,35.72-37.66,60.75-46.09l.7-.24c4-1.32,8.1-2.44,12.28-3.34,19.04-4.1,32.86-21.27,32.86-40.83,0-23.05-18.75-41.8-41.8-41.8ZM101.26,107.38c-3.44-.26-6.89-.4-10.3-.4-26.87,0-52.94,8.07-74.96,22.96v-56.66c18.52-11.38,39.74-17.38,61.63-17.38,23.8,0,46.93,7.2,66.4,20.48-16.26,7.49-30.76,18.07-42.77,31.01ZM16,149.88c20.51-16.91,46.14-26.39,72.77-26.89-6.73,9.81-12.2,20.56-16.2,32.02-.12.35-.24.69-.36,1.04-.05.16-.11.32-.17.48-.22.64-.42,1.29-.63,1.93-.12.37-.24.75-.35,1.12-.15.48-.29.96-.44,1.45-.2.66-.39,1.33-.58,2-.02.06-.03.12-.05.18-.13.47-.27.95-.39,1.42-.15.56-.29,1.12-.44,1.68-.1.37-.19.75-.28,1.12-.07.27-.13.53-.2.8-.29,1.2-.56,2.41-.82,3.63-1.99,9.49-9.31,16.91-18.43,19.41-2.11.58-4.31.89-6.57.91h-.86c-.87.01-1.72-.03-2.57-.1-5.49-.5-10.64-2.72-14.78-6.42-.35-.31-.69-.63-1.02-.96-.61-.61-1.2-1.25-1.74-1.9-.27-.33-.54-.66-.79-1-2.04-2.72-3.5-5.8-4.32-9.07-.51-2.05-.78-4.17-.78-6.34v-16.5ZM172.21,66.98c-3.53.76-7,1.66-10.41,2.69-23.77-19.23-53.48-29.77-84.17-29.77-21.63,0-42.67,5.16-61.63,15.01v-13.11c0-14.23,11.57-25.8,25.8-25.8h124.85c14.23,0,25.8,11.57,25.8,25.8,0,12.07-8.51,22.66-20.23,25.18Z"/>
  </g>
</svg>